<?xml version="1.0" encoding="UTF-8" standalone="no"?>
<!DOCTYPE svg PUBLIC "-//W3C//DTD SVG 1.1//EN"
 "http://www.w3.org/Graphics/SVG/1.1/DTD/svg11.dtd">
<!-- Generated by graphviz version 9.0.0 (20230911.1827)
 -->
<!-- Title: G Pages: 1 -->
<svg width="456pt" height="1460pt"
 viewBox="0.00 0.00 456.11 1460.00" xmlns="http://www.w3.org/2000/svg" xmlns:xlink="http://www.w3.org/1999/xlink">
<g id="graph0" class="graph" transform="scale(1 1) rotate(0) translate(4 1456)">
<title>G</title>
<polygon fill="white" stroke="none" points="-4,4 -4,-1456 452.11,-1456 452.11,4 -4,4"/>
<!-- 1_0 -->
<g id="node1" class="node">
<title>1_0</title>
<polygon fill="none" stroke="black" points="80.95,-1363.5 26.95,-1363.5 26.95,-1327.5 80.95,-1327.5 80.95,-1363.5"/>
<text text-anchor="middle" x="53.95" y="-1340.45" font-family="Times,serif" font-size="14.00">1_0</text>
</g>
<!-- 13_5 -->
<g id="node2" class="node">
<title>13_5</title>
<ellipse fill="none" stroke="black" cx="53.95" cy="-1257" rx="29.34" ry="18"/>
<text text-anchor="middle" x="53.95" y="-1251.95" font-family="Times,serif" font-size="14.00">13_5</text>
</g>
<!-- 1_0&#45;&#45;13_5 -->
<g id="edge1" class="edge">
<title>1_0&#45;&#45;13_5</title>
<path fill="none" stroke="black" d="M53.95,-1327.41C53.95,-1312.34 53.95,-1290.49 53.95,-1275.35"/>
<text text-anchor="middle" x="60.7" y="-1296.2" font-family="Times,serif" font-size="14.00">73</text>
</g>
<!-- 39_17 -->
<g id="node3" class="node">
<title>39_17</title>
<ellipse fill="none" stroke="black" cx="101.95" cy="-1168.5" rx="33.95" ry="18"/>
<text text-anchor="middle" x="101.95" y="-1163.45" font-family="Times,serif" font-size="14.00">39_17</text>
</g>
<!-- 13_5&#45;&#45;39_17 -->
<g id="edge2" class="edge">
<title>13_5&#45;&#45;39_17</title>
<path fill="none" stroke="black" d="M62.98,-1239.73C71.45,-1224.46 84.07,-1201.72 92.63,-1186.29"/>
<text text-anchor="middle" x="93.07" y="-1207.7" font-family="Times,serif" font-size="14.00">222</text>
</g>
<!-- 19_35 -->
<g id="node4" class="node">
<title>19_35</title>
<ellipse fill="none" stroke="black" cx="36.95" cy="-991.5" rx="33.95" ry="18"/>
<text text-anchor="middle" x="36.95" y="-986.45" font-family="Times,serif" font-size="14.00">19_35</text>
</g>
<!-- 13_5&#45;&#45;19_35 -->
<g id="edge3" class="edge">
<title>13_5&#45;&#45;19_35</title>
<path fill="none" stroke="black" d="M52.83,-1238.71C49.75,-1190.97 41.15,-1057.67 38.07,-1009.85"/>
<text text-anchor="middle" x="56.07" y="-1119.2" font-family="Times,serif" font-size="14.00">212</text>
</g>
<!-- 41_31 -->
<g id="node10" class="node">
<title>41_31</title>
<ellipse fill="none" stroke="black" cx="101.95" cy="-1080" rx="33.95" ry="18"/>
<text text-anchor="middle" x="101.95" y="-1074.95" font-family="Times,serif" font-size="14.00">41_31</text>
</g>
<!-- 39_17&#45;&#45;41_31 -->
<g id="edge9" class="edge">
<title>39_17&#45;&#45;41_31</title>
<path fill="none" stroke="black" d="M101.95,-1150.41C101.95,-1135.34 101.95,-1113.49 101.95,-1098.35"/>
<text text-anchor="middle" x="108.7" y="-1119.2" font-family="Times,serif" font-size="14.00">60</text>
</g>
<!-- 17_55 -->
<g id="node16" class="node">
<title>17_55</title>
<ellipse fill="none" stroke="black" cx="36.95" cy="-903" rx="33.95" ry="18"/>
<text text-anchor="middle" x="36.95" y="-897.95" font-family="Times,serif" font-size="14.00">17_55</text>
</g>
<!-- 19_35&#45;&#45;17_55 -->
<g id="edge19" class="edge">
<title>19_35&#45;&#45;17_55</title>
<path fill="none" stroke="black" d="M36.95,-973.41C36.95,-958.34 36.95,-936.49 36.95,-921.35"/>
<text text-anchor="middle" x="47.07" y="-942.2" font-family="Times,serif" font-size="14.00">278</text>
</g>
<!-- 53_13 -->
<g id="node5" class="node">
<title>53_13</title>
<ellipse fill="none" stroke="black" cx="169.95" cy="-1434" rx="33.95" ry="18"/>
<text text-anchor="middle" x="169.95" y="-1428.95" font-family="Times,serif" font-size="14.00">53_13</text>
</g>
<!-- 53_13&#45;&#45;39_17 -->
<g id="edge5" class="edge">
<title>53_13&#45;&#45;39_17</title>
<path fill="none" stroke="black" d="M162.6,-1416.09C160.29,-1410.41 157.84,-1403.99 155.95,-1398 131.43,-1320.46 112.33,-1225.01 105.1,-1186.65"/>
<text text-anchor="middle" x="141.07" y="-1296.2" font-family="Times,serif" font-size="14.00">102</text>
</g>
<!-- 75_13 -->
<g id="node6" class="node">
<title>75_13</title>
<ellipse fill="none" stroke="black" cx="231.95" cy="-1345.5" rx="33.95" ry="18"/>
<text text-anchor="middle" x="231.95" y="-1340.45" font-family="Times,serif" font-size="14.00">75_13</text>
</g>
<!-- 53_13&#45;&#45;75_13 -->
<g id="edge4" class="edge">
<title>53_13&#45;&#45;75_13</title>
<path fill="none" stroke="black" d="M181.61,-1416.73C192.7,-1401.27 209.27,-1378.14 220.34,-1362.7"/>
<text text-anchor="middle" x="216.07" y="-1384.7" font-family="Times,serif" font-size="14.00">226</text>
</g>
<!-- 55_41 -->
<g id="node7" class="node">
<title>55_41</title>
<ellipse fill="none" stroke="black" cx="169.95" cy="-991.5" rx="33.95" ry="18"/>
<text text-anchor="middle" x="169.95" y="-986.45" font-family="Times,serif" font-size="14.00">55_41</text>
</g>
<!-- 53_13&#45;&#45;55_41 -->
<g id="edge6" class="edge">
<title>53_13&#45;&#45;55_41</title>
<path fill="none" stroke="black" d="M169.95,-1415.77C169.95,-1398.31 169.95,-1370.53 169.95,-1346.5 169.95,-1346.5 169.95,-1346.5 169.95,-1079 169.95,-1054.97 169.95,-1027.19 169.95,-1009.73"/>
<text text-anchor="middle" x="180.07" y="-1207.7" font-family="Times,serif" font-size="14.00">130</text>
</g>
<!-- 99_19 -->
<g id="node8" class="node">
<title>99_19</title>
<ellipse fill="none" stroke="black" cx="298.95" cy="-1257" rx="33.95" ry="18"/>
<text text-anchor="middle" x="298.95" y="-1251.95" font-family="Times,serif" font-size="14.00">99_19</text>
</g>
<!-- 75_13&#45;&#45;99_19 -->
<g id="edge7" class="edge">
<title>75_13&#45;&#45;99_19</title>
<path fill="none" stroke="black" d="M244.24,-1328.63C256.25,-1313.12 274.45,-1289.63 286.51,-1274.06"/>
<text text-anchor="middle" x="281.07" y="-1296.2" font-family="Times,serif" font-size="14.00">254</text>
</g>
<!-- 75_39 -->
<g id="node9" class="node">
<title>75_39</title>
<ellipse fill="none" stroke="black" cx="231.95" cy="-1080" rx="33.95" ry="18"/>
<text text-anchor="middle" x="231.95" y="-1074.95" font-family="Times,serif" font-size="14.00">75_39</text>
</g>
<!-- 75_13&#45;&#45;75_39 -->
<g id="edge8" class="edge">
<title>75_13&#45;&#45;75_39</title>
<path fill="none" stroke="black" d="M231.95,-1327.21C231.95,-1279.47 231.95,-1146.17 231.95,-1098.35"/>
<text text-anchor="middle" x="242.07" y="-1207.7" font-family="Times,serif" font-size="14.00">118</text>
</g>
<!-- 67_55 -->
<g id="node18" class="node">
<title>67_55</title>
<ellipse fill="none" stroke="black" cx="169.95" cy="-903" rx="33.95" ry="18"/>
<text text-anchor="middle" x="169.95" y="-897.95" font-family="Times,serif" font-size="14.00">67_55</text>
</g>
<!-- 55_41&#45;&#45;67_55 -->
<g id="edge22" class="edge">
<title>55_41&#45;&#45;67_55</title>
<path fill="none" stroke="black" d="M169.95,-973.41C169.95,-958.34 169.95,-936.49 169.95,-921.35"/>
<text text-anchor="middle" x="176.7" y="-942.2" font-family="Times,serif" font-size="14.00">98</text>
</g>
<!-- 105_29 -->
<g id="node11" class="node">
<title>105_29</title>
<ellipse fill="none" stroke="black" cx="298.95" cy="-1168.5" rx="38.56" ry="18"/>
<text text-anchor="middle" x="298.95" y="-1163.45" font-family="Times,serif" font-size="14.00">105_29</text>
</g>
<!-- 99_19&#45;&#45;105_29 -->
<g id="edge10" class="edge">
<title>99_19&#45;&#45;105_29</title>
<path fill="none" stroke="black" d="M298.95,-1238.91C298.95,-1223.84 298.95,-1201.99 298.95,-1186.85"/>
<text text-anchor="middle" x="305.7" y="-1207.7" font-family="Times,serif" font-size="14.00">36</text>
</g>
<!-- 127_31 -->
<g id="node12" class="node">
<title>127_31</title>
<ellipse fill="none" stroke="black" cx="370.95" cy="-1080" rx="38.56" ry="18"/>
<text text-anchor="middle" x="370.95" y="-1074.95" font-family="Times,serif" font-size="14.00">127_31</text>
</g>
<!-- 99_19&#45;&#45;127_31 -->
<g id="edge11" class="edge">
<title>99_19&#45;&#45;127_31</title>
<path fill="none" stroke="black" d="M312.49,-1240.21C323.34,-1226.77 338.16,-1206.5 346.95,-1186.5 359.87,-1157.09 366.24,-1119.9 369.04,-1098.44"/>
<text text-anchor="middle" x="369.07" y="-1163.45" font-family="Times,serif" font-size="14.00">532</text>
</g>
<!-- 75_39&#45;&#45;55_41 -->
<g id="edge20" class="edge">
<title>75_39&#45;&#45;55_41</title>
<path fill="none" stroke="black" d="M219.1,-1063.17C214.39,-1057.23 209.08,-1050.38 204.45,-1044 196.1,-1032.51 187.19,-1019.17 180.52,-1008.95"/>
<text text-anchor="middle" x="210.7" y="-1030.7" font-family="Times,serif" font-size="14.00">82</text>
</g>
<!-- 87_55 -->
<g id="node17" class="node">
<title>87_55</title>
<ellipse fill="none" stroke="black" cx="232.95" cy="-814.5" rx="33.95" ry="18"/>
<text text-anchor="middle" x="232.95" y="-809.45" font-family="Times,serif" font-size="14.00">87_55</text>
</g>
<!-- 75_39&#45;&#45;87_55 -->
<g id="edge21" class="edge">
<title>75_39&#45;&#45;87_55</title>
<path fill="none" stroke="black" d="M232.02,-1061.71C232.2,-1013.97 232.7,-880.67 232.88,-832.85"/>
<text text-anchor="middle" x="242.07" y="-942.2" font-family="Times,serif" font-size="14.00">120</text>
</g>
<!-- 41_31&#45;&#45;19_35 -->
<g id="edge15" class="edge">
<title>41_31&#45;&#45;19_35</title>
<path fill="none" stroke="black" d="M85.77,-1064.04C79.76,-1058.09 73.1,-1051 67.7,-1044 59.31,-1033.11 51.4,-1019.76 45.7,-1009.38"/>
<text text-anchor="middle" x="78.07" y="-1030.7" font-family="Times,serif" font-size="14.00">114</text>
</g>
<!-- 41_31&#45;&#45;55_41 -->
<g id="edge16" class="edge">
<title>41_31&#45;&#45;55_41</title>
<path fill="none" stroke="black" d="M114.42,-1063.13C126.61,-1047.62 145.08,-1024.13 157.33,-1008.56"/>
<text text-anchor="middle" x="148.7" y="-1030.7" font-family="Times,serif" font-size="14.00">92</text>
</g>
<!-- 43_65 -->
<g id="node14" class="node">
<title>43_65</title>
<ellipse fill="none" stroke="black" cx="101.95" cy="-814.5" rx="33.95" ry="18"/>
<text text-anchor="middle" x="101.95" y="-809.45" font-family="Times,serif" font-size="14.00">43_65</text>
</g>
<!-- 41_31&#45;&#45;43_65 -->
<g id="edge17" class="edge">
<title>41_31&#45;&#45;43_65</title>
<path fill="none" stroke="black" d="M101.95,-1061.71C101.95,-1013.97 101.95,-880.67 101.95,-832.85"/>
<text text-anchor="middle" x="112.07" y="-942.2" font-family="Times,serif" font-size="14.00">208</text>
</g>
<!-- 105_29&#45;&#45;75_39 -->
<g id="edge13" class="edge">
<title>105_29&#45;&#45;75_39</title>
<path fill="none" stroke="black" d="M283.33,-1151.57C277.87,-1145.74 271.82,-1138.98 266.7,-1132.5 257.74,-1121.16 248.63,-1107.58 242,-1097.22"/>
<text text-anchor="middle" x="276.07" y="-1119.2" font-family="Times,serif" font-size="14.00">120</text>
</g>
<!-- 105_29&#45;&#45;127_31 -->
<g id="edge12" class="edge">
<title>105_29&#45;&#45;127_31</title>
<path fill="none" stroke="black" d="M312.49,-1151.23C325.37,-1135.77 344.62,-1112.64 357.47,-1097.2"/>
<text text-anchor="middle" x="347.7" y="-1119.2" font-family="Times,serif" font-size="14.00">96</text>
</g>
<!-- 105_63 -->
<g id="node13" class="node">
<title>105_63</title>
<ellipse fill="none" stroke="black" cx="300.95" cy="-726" rx="38.56" ry="18"/>
<text text-anchor="middle" x="300.95" y="-720.95" font-family="Times,serif" font-size="14.00">105_63</text>
</g>
<!-- 105_29&#45;&#45;105_63 -->
<g id="edge14" class="edge">
<title>105_29&#45;&#45;105_63</title>
<path fill="none" stroke="black" d="M299.58,-1150.27C300.17,-1132.81 300.95,-1105.03 300.95,-1081 300.95,-1081 300.95,-1081 300.95,-813.5 300.95,-789.47 300.95,-761.69 300.95,-744.23"/>
<text text-anchor="middle" x="311.07" y="-942.2" font-family="Times,serif" font-size="14.00">162</text>
</g>
<!-- 123_53 -->
<g id="node15" class="node">
<title>123_53</title>
<ellipse fill="none" stroke="black" cx="370.95" cy="-814.5" rx="38.56" ry="18"/>
<text text-anchor="middle" x="370.95" y="-809.45" font-family="Times,serif" font-size="14.00">123_53</text>
</g>
<!-- 127_31&#45;&#45;123_53 -->
<g id="edge18" class="edge">
<title>127_31&#45;&#45;123_53</title>
<path fill="none" stroke="black" d="M370.95,-1061.71C370.95,-1013.97 370.95,-880.67 370.95,-832.85"/>
<text text-anchor="middle" x="381.07" y="-942.2" font-family="Times,serif" font-size="14.00">222</text>
</g>
<!-- 113_83 -->
<g id="node23" class="node">
<title>113_83</title>
<ellipse fill="none" stroke="black" cx="304.95" cy="-637.5" rx="38.56" ry="18"/>
<text text-anchor="middle" x="304.95" y="-632.45" font-family="Times,serif" font-size="14.00">113_83</text>
</g>
<!-- 105_63&#45;&#45;113_83 -->
<g id="edge32" class="edge">
<title>105_63&#45;&#45;113_83</title>
<path fill="none" stroke="black" d="M301.74,-707.91C302.44,-692.84 303.45,-670.99 304.15,-655.85"/>
<text text-anchor="middle" x="309.7" y="-676.7" font-family="Times,serif" font-size="14.00">92</text>
</g>
<!-- 29_75 -->
<g id="node24" class="node">
<title>29_75</title>
<ellipse fill="none" stroke="black" cx="99.95" cy="-726" rx="33.95" ry="18"/>
<text text-anchor="middle" x="99.95" y="-720.95" font-family="Times,serif" font-size="14.00">29_75</text>
</g>
<!-- 43_65&#45;&#45;29_75 -->
<g id="edge33" class="edge">
<title>43_65&#45;&#45;29_75</title>
<path fill="none" stroke="black" d="M101.55,-796.41C101.21,-781.34 100.7,-759.49 100.35,-744.35"/>
<text text-anchor="middle" x="107.7" y="-765.2" font-family="Times,serif" font-size="14.00">92</text>
</g>
<!-- 123_53&#45;&#45;105_63 -->
<g id="edge23" class="edge">
<title>123_53&#45;&#45;105_63</title>
<path fill="none" stroke="black" d="M357.78,-797.23C345.27,-781.77 326.55,-758.64 314.06,-743.2"/>
<text text-anchor="middle" x="352.07" y="-765.2" font-family="Times,serif" font-size="14.00">120</text>
</g>
<!-- 127_75 -->
<g id="node19" class="node">
<title>127_75</title>
<ellipse fill="none" stroke="black" cx="395.95" cy="-726" rx="38.56" ry="18"/>
<text text-anchor="middle" x="395.95" y="-720.95" font-family="Times,serif" font-size="14.00">127_75</text>
</g>
<!-- 123_53&#45;&#45;127_75 -->
<g id="edge24" class="edge">
<title>123_53&#45;&#45;127_75</title>
<path fill="none" stroke="black" d="M375.89,-796.41C380.27,-781.25 386.64,-759.21 391.02,-744.05"/>
<text text-anchor="middle" x="395.07" y="-765.2" font-family="Times,serif" font-size="14.00">226</text>
</g>
<!-- 17_55&#45;&#45;43_65 -->
<g id="edge25" class="edge">
<title>17_55&#45;&#45;43_65</title>
<path fill="none" stroke="black" d="M45.7,-885.12C51.4,-874.74 59.31,-861.39 67.7,-850.5 73.1,-843.5 79.76,-836.41 85.77,-830.46"/>
<text text-anchor="middle" x="78.07" y="-853.7" font-family="Times,serif" font-size="14.00">128</text>
</g>
<!-- 7_79 -->
<g id="node20" class="node">
<title>7_79</title>
<ellipse fill="none" stroke="black" cx="33.95" cy="-637.5" rx="29.34" ry="18"/>
<text text-anchor="middle" x="33.95" y="-632.45" font-family="Times,serif" font-size="14.00">7_79</text>
</g>
<!-- 17_55&#45;&#45;7_79 -->
<g id="edge26" class="edge">
<title>17_55&#45;&#45;7_79</title>
<path fill="none" stroke="black" d="M36.75,-884.71C36.21,-836.97 34.69,-703.67 34.15,-655.85"/>
<text text-anchor="middle" x="46.07" y="-765.2" font-family="Times,serif" font-size="14.00">238</text>
</g>
<!-- 87_55&#45;&#45;105_63 -->
<g id="edge30" class="edge">
<title>87_55&#45;&#45;105_63</title>
<path fill="none" stroke="black" d="M242.52,-797.16C248.9,-786.75 257.72,-773.16 266.7,-762 272.13,-755.24 278.68,-748.31 284.58,-742.42"/>
<text text-anchor="middle" x="276.07" y="-765.2" font-family="Times,serif" font-size="14.00">166</text>
</g>
<!-- 83_85 -->
<g id="node22" class="node">
<title>83_85</title>
<ellipse fill="none" stroke="black" cx="246.95" cy="-549" rx="33.95" ry="18"/>
<text text-anchor="middle" x="246.95" y="-543.95" font-family="Times,serif" font-size="14.00">83_85</text>
</g>
<!-- 87_55&#45;&#45;83_85 -->
<g id="edge31" class="edge">
<title>87_55&#45;&#45;83_85</title>
<path fill="none" stroke="black" d="M233.87,-796.21C236.41,-748.47 243.49,-615.17 246.03,-567.35"/>
<text text-anchor="middle" x="250.07" y="-676.7" font-family="Times,serif" font-size="14.00">166</text>
</g>
<!-- 67_55&#45;&#45;43_65 -->
<g id="edge28" class="edge">
<title>67_55&#45;&#45;43_65</title>
<path fill="none" stroke="black" d="M153.93,-886.92C147.93,-880.96 141.24,-873.89 135.7,-867 126.72,-855.84 117.9,-842.25 111.52,-831.84"/>
<text text-anchor="middle" x="145.07" y="-853.7" font-family="Times,serif" font-size="14.00">142</text>
</g>
<!-- 67_55&#45;&#45;87_55 -->
<g id="edge27" class="edge">
<title>67_55&#45;&#45;87_55</title>
<path fill="none" stroke="black" d="M180.45,-885.5C187.09,-875.26 196,-861.92 204.45,-850.5 209.2,-844.07 214.69,-837.21 219.58,-831.28"/>
<text text-anchor="middle" x="210.7" y="-853.7" font-family="Times,serif" font-size="14.00">44</text>
</g>
<!-- 67_77 -->
<g id="node21" class="node">
<title>67_77</title>
<ellipse fill="none" stroke="black" cx="166.95" cy="-637.5" rx="33.95" ry="18"/>
<text text-anchor="middle" x="166.95" y="-632.45" font-family="Times,serif" font-size="14.00">67_77</text>
</g>
<!-- 67_55&#45;&#45;67_77 -->
<g id="edge29" class="edge">
<title>67_55&#45;&#45;67_77</title>
<path fill="none" stroke="black" d="M169.75,-884.71C169.21,-836.97 167.69,-703.67 167.15,-655.85"/>
<text text-anchor="middle" x="178.07" y="-765.2" font-family="Times,serif" font-size="14.00">118</text>
</g>
<!-- 127_75&#45;&#45;113_83 -->
<g id="edge37" class="edge">
<title>127_75&#45;&#45;113_83</title>
<path fill="none" stroke="black" d="M379.68,-709.54C363.22,-693.89 337.91,-669.83 321.38,-654.12"/>
<text text-anchor="middle" x="364.7" y="-676.7" font-family="Times,serif" font-size="14.00">94</text>
</g>
<!-- 137_105 -->
<g id="node26" class="node">
<title>137_105</title>
<ellipse fill="none" stroke="black" cx="404.95" cy="-283.5" rx="43.16" ry="18"/>
<text text-anchor="middle" x="404.95" y="-278.45" font-family="Times,serif" font-size="14.00">137_105</text>
</g>
<!-- 127_75&#45;&#45;137_105 -->
<g id="edge38" class="edge">
<title>127_75&#45;&#45;137_105</title>
<path fill="none" stroke="black" d="M396.9,-707.77C397.78,-690.32 398.95,-662.54 398.95,-638.5 398.95,-638.5 398.95,-638.5 398.95,-371 398.95,-346.91 401.29,-319.15 403.05,-301.71"/>
<text text-anchor="middle" x="409.07" y="-499.7" font-family="Times,serif" font-size="14.00">152</text>
</g>
<!-- 7_111 -->
<g id="node28" class="node">
<title>7_111</title>
<ellipse fill="none" stroke="black" cx="33.95" cy="-549" rx="33.95" ry="18"/>
<text text-anchor="middle" x="33.95" y="-543.95" font-family="Times,serif" font-size="14.00">7_111</text>
</g>
<!-- 7_79&#45;&#45;7_111 -->
<g id="edge41" class="edge">
<title>7_79&#45;&#45;7_111</title>
<path fill="none" stroke="black" d="M33.95,-619.41C33.95,-604.34 33.95,-582.49 33.95,-567.35"/>
<text text-anchor="middle" x="44.07" y="-588.2" font-family="Times,serif" font-size="14.00">208</text>
</g>
<!-- 67_77&#45;&#45;83_85 -->
<g id="edge39" class="edge">
<title>67_77&#45;&#45;83_85</title>
<path fill="none" stroke="black" d="M177.86,-619.97C185.12,-609.48 195.19,-595.88 205.45,-585 212.43,-577.59 220.91,-570.21 228.38,-564.14"/>
<text text-anchor="middle" x="211.7" y="-588.2" font-family="Times,serif" font-size="14.00">72</text>
</g>
<!-- 59_99 -->
<g id="node27" class="node">
<title>59_99</title>
<ellipse fill="none" stroke="black" cx="160.95" cy="-549" rx="33.95" ry="18"/>
<text text-anchor="middle" x="160.95" y="-543.95" font-family="Times,serif" font-size="14.00">59_99</text>
</g>
<!-- 67_77&#45;&#45;59_99 -->
<g id="edge40" class="edge">
<title>67_77&#45;&#45;59_99</title>
<path fill="none" stroke="black" d="M163.87,-619.11C163,-613.5 162.17,-607.26 161.7,-601.5 160.77,-590.09 160.58,-577.22 160.62,-567.19"/>
<text text-anchor="middle" x="171.07" y="-588.2" font-family="Times,serif" font-size="14.00">162</text>
</g>
<!-- 87_101 -->
<g id="node30" class="node">
<title>87_101</title>
<ellipse fill="none" stroke="black" cx="237.95" cy="-460.5" rx="38.56" ry="18"/>
<text text-anchor="middle" x="237.95" y="-455.45" font-family="Times,serif" font-size="14.00">87_101</text>
</g>
<!-- 83_85&#45;&#45;87_101 -->
<g id="edge44" class="edge">
<title>83_85&#45;&#45;87_101</title>
<path fill="none" stroke="black" d="M245.17,-530.91C243.6,-515.84 241.33,-493.99 239.76,-478.85"/>
<text text-anchor="middle" x="249.7" y="-499.7" font-family="Times,serif" font-size="14.00">84</text>
</g>
<!-- 113_83&#45;&#45;83_85 -->
<g id="edge42" class="edge">
<title>113_83&#45;&#45;83_85</title>
<path fill="none" stroke="black" d="M290.02,-620.72C284.87,-614.9 279.26,-608.11 274.7,-601.5 267.09,-590.46 259.95,-577.11 254.82,-566.77"/>
<text text-anchor="middle" x="284.07" y="-588.2" font-family="Times,serif" font-size="14.00">156</text>
</g>
<!-- 103_105 -->
<g id="node29" class="node">
<title>103_105</title>
<ellipse fill="none" stroke="black" cx="307.95" cy="-372" rx="43.16" ry="18"/>
<text text-anchor="middle" x="307.95" y="-366.95" font-family="Times,serif" font-size="14.00">103_105</text>
</g>
<!-- 113_83&#45;&#45;103_105 -->
<g id="edge43" class="edge">
<title>113_83&#45;&#45;103_105</title>
<path fill="none" stroke="black" d="M305.15,-619.21C305.69,-571.47 307.21,-438.17 307.75,-390.35"/>
<text text-anchor="middle" x="316.07" y="-499.7" font-family="Times,serif" font-size="14.00">116</text>
</g>
<!-- 29_75&#45;&#45;7_79 -->
<g id="edge35" class="edge">
<title>29_75&#45;&#45;7_79</title>
<path fill="none" stroke="black" d="M83.27,-710.11C77.08,-704.17 70.22,-697.07 64.7,-690 56.1,-679.01 48.08,-665.41 42.39,-654.95"/>
<text text-anchor="middle" x="75.07" y="-676.7" font-family="Times,serif" font-size="14.00">158</text>
</g>
<!-- 29_75&#45;&#45;67_77 -->
<g id="edge34" class="edge">
<title>29_75&#45;&#45;67_77</title>
<path fill="none" stroke="black" d="M110.42,-708.86C117.3,-698.52 126.67,-684.95 135.7,-673.5 140.85,-666.98 146.85,-660.09 152.22,-654.18"/>
<text text-anchor="middle" x="145.07" y="-676.7" font-family="Times,serif" font-size="14.00">104</text>
</g>
<!-- 37_113 -->
<g id="node25" class="node">
<title>37_113</title>
<ellipse fill="none" stroke="black" cx="98.95" cy="-460.5" rx="38.56" ry="18"/>
<text text-anchor="middle" x="98.95" y="-455.45" font-family="Times,serif" font-size="14.00">37_113</text>
</g>
<!-- 29_75&#45;&#45;37_113 -->
<g id="edge36" class="edge">
<title>29_75&#45;&#45;37_113</title>
<path fill="none" stroke="black" d="M99.88,-707.71C99.7,-659.97 99.2,-526.67 99.02,-478.85"/>
<text text-anchor="middle" x="109.07" y="-588.2" font-family="Times,serif" font-size="14.00">190</text>
</g>
<!-- 33_135 -->
<g id="node35" class="node">
<title>33_135</title>
<ellipse fill="none" stroke="black" cx="98.95" cy="-18" rx="38.56" ry="18"/>
<text text-anchor="middle" x="98.95" y="-12.95" font-family="Times,serif" font-size="14.00">33_135</text>
</g>
<!-- 37_113&#45;&#45;33_135 -->
<g id="edge55" class="edge">
<title>37_113&#45;&#45;33_135</title>
<path fill="none" stroke="black" d="M98.95,-442.27C98.95,-424.81 98.95,-397.03 98.95,-373 98.95,-373 98.95,-373 98.95,-105.5 98.95,-81.47 98.95,-53.69 98.95,-36.23"/>
<text text-anchor="middle" x="109.07" y="-234.2" font-family="Times,serif" font-size="14.00">150</text>
</g>
<!-- 129_133 -->
<g id="node34" class="node">
<title>129_133</title>
<ellipse fill="none" stroke="black" cx="345.95" cy="-195" rx="43.16" ry="18"/>
<text text-anchor="middle" x="345.95" y="-189.95" font-family="Times,serif" font-size="14.00">129_133</text>
</g>
<!-- 137_105&#45;&#45;129_133 -->
<g id="edge52" class="edge">
<title>137_105&#45;&#45;129_133</title>
<path fill="none" stroke="black" d="M393.57,-265.82C383.13,-250.5 367.73,-227.93 357.29,-212.63"/>
<text text-anchor="middle" x="390.07" y="-234.2" font-family="Times,serif" font-size="14.00">232</text>
</g>
<!-- 59_99&#45;&#45;37_113 -->
<g id="edge46" class="edge">
<title>59_99&#45;&#45;37_113</title>
<path fill="none" stroke="black" d="M147.67,-532.23C142.83,-526.3 137.39,-519.44 132.7,-513 124.39,-501.59 115.68,-488.26 109.19,-478.02"/>
<text text-anchor="middle" x="142.07" y="-499.7" font-family="Times,serif" font-size="14.00">200</text>
</g>
<!-- 59_99&#45;&#45;87_101 -->
<g id="edge45" class="edge">
<title>59_99&#45;&#45;87_101</title>
<path fill="none" stroke="black" d="M175.07,-532.13C188.88,-516.62 209.79,-493.13 223.66,-477.56"/>
<text text-anchor="middle" x="216.07" y="-499.7" font-family="Times,serif" font-size="14.00">150</text>
</g>
<!-- 65_133 -->
<g id="node31" class="node">
<title>65_133</title>
<ellipse fill="none" stroke="black" cx="166.95" cy="-106.5" rx="38.56" ry="18"/>
<text text-anchor="middle" x="166.95" y="-101.45" font-family="Times,serif" font-size="14.00">65_133</text>
</g>
<!-- 59_99&#45;&#45;65_133 -->
<g id="edge47" class="edge">
<title>59_99&#45;&#45;65_133</title>
<path fill="none" stroke="black" d="M162.85,-530.79C164.61,-513.35 166.95,-485.59 166.95,-461.5 166.95,-461.5 166.95,-461.5 166.95,-194 166.95,-169.97 166.95,-142.19 166.95,-124.73"/>
<text text-anchor="middle" x="177.07" y="-322.7" font-family="Times,serif" font-size="14.00">264</text>
</g>
<!-- 7_111&#45;&#45;37_113 -->
<g id="edge53" class="edge">
<title>7_111&#45;&#45;37_113</title>
<path fill="none" stroke="black" d="M42.7,-531.12C48.4,-520.74 56.31,-507.39 64.7,-496.5 69.89,-489.77 76.25,-482.95 82.08,-477.15"/>
<text text-anchor="middle" x="75.07" y="-499.7" font-family="Times,serif" font-size="14.00">228</text>
</g>
<!-- 7_111&#45;&#45;33_135 -->
<g id="edge54" class="edge">
<title>7_111&#45;&#45;33_135</title>
<path fill="none" stroke="black" d="M33,-530.77C32.12,-513.32 30.95,-485.54 30.95,-461.5 30.95,-461.5 30.95,-461.5 30.95,-105.5 30.95,-74.75 57.85,-48.46 77.81,-33.19"/>
<text text-anchor="middle" x="41.07" y="-278.45" font-family="Times,serif" font-size="14.00">298</text>
</g>
<!-- 103_105&#45;&#45;137_105 -->
<g id="edge50" class="edge">
<title>103_105&#45;&#45;137_105</title>
<path fill="none" stroke="black" d="M325.25,-355.13C336.45,-344.9 351.37,-331.34 364.7,-319.5 371.9,-313.1 379.89,-306.13 386.85,-300.1"/>
<text text-anchor="middle" x="374.07" y="-322.7" font-family="Times,serif" font-size="14.00">222</text>
</g>
<!-- 105_123 -->
<g id="node33" class="node">
<title>105_123</title>
<ellipse fill="none" stroke="black" cx="300.95" cy="-283.5" rx="43.16" ry="18"/>
<text text-anchor="middle" x="300.95" y="-278.45" font-family="Times,serif" font-size="14.00">105_123</text>
</g>
<!-- 103_105&#45;&#45;105_123 -->
<g id="edge51" class="edge">
<title>103_105&#45;&#45;105_123</title>
<path fill="none" stroke="black" d="M306.57,-353.91C305.35,-338.84 303.58,-316.99 302.35,-301.85"/>
<text text-anchor="middle" x="311.7" y="-322.7" font-family="Times,serif" font-size="14.00">64</text>
</g>
<!-- 87_101&#45;&#45;103_105 -->
<g id="edge48" class="edge">
<title>87_101&#45;&#45;103_105</title>
<path fill="none" stroke="black" d="M251.12,-443.23C263.55,-427.86 282.11,-404.93 294.6,-389.49"/>
<text text-anchor="middle" x="285.7" y="-411.2" font-family="Times,serif" font-size="14.00">80</text>
</g>
<!-- 83_125 -->
<g id="node32" class="node">
<title>83_125</title>
<ellipse fill="none" stroke="black" cx="233.95" cy="-195" rx="38.56" ry="18"/>
<text text-anchor="middle" x="233.95" y="-189.95" font-family="Times,serif" font-size="14.00">83_125</text>
</g>
<!-- 87_101&#45;&#45;83_125 -->
<g id="edge49" class="edge">
<title>87_101&#45;&#45;83_125</title>
<path fill="none" stroke="black" d="M237.69,-442.21C236.96,-394.47 234.94,-261.17 234.21,-213.35"/>
<text text-anchor="middle" x="246.07" y="-322.7" font-family="Times,serif" font-size="14.00">160</text>
</g>
<!-- 65_133&#45;&#45;33_135 -->
<g id="edge59" class="edge">
<title>65_133&#45;&#45;33_135</title>
<path fill="none" stroke="black" d="M154.16,-89.23C142,-73.77 123.82,-50.64 111.68,-35.2"/>
<text text-anchor="middle" x="149.07" y="-57.2" font-family="Times,serif" font-size="14.00">226</text>
</g>
<!-- 83_125&#45;&#45;65_133 -->
<g id="edge58" class="edge">
<title>83_125&#45;&#45;65_133</title>
<path fill="none" stroke="black" d="M221.35,-177.73C209.37,-162.27 191.46,-139.14 179.5,-123.7"/>
<text text-anchor="middle" x="212.7" y="-145.7" font-family="Times,serif" font-size="14.00">98</text>
</g>
<!-- 105_123&#45;&#45;83_125 -->
<g id="edge56" class="edge">
<title>105_123&#45;&#45;83_125</title>
<path fill="none" stroke="black" d="M288.35,-266.23C276.37,-250.77 258.46,-227.64 246.5,-212.2"/>
<text text-anchor="middle" x="283.07" y="-234.2" font-family="Times,serif" font-size="14.00">216</text>
</g>
<!-- 105_123&#45;&#45;129_133 -->
<g id="edge57" class="edge">
<title>105_123&#45;&#45;129_133</title>
<path fill="none" stroke="black" d="M309.84,-265.41C317.73,-250.25 329.19,-228.21 337.08,-213.05"/>
<text text-anchor="middle" x="337.07" y="-234.2" font-family="Times,serif" font-size="14.00">198</text>
</g>
<!-- 139_140 -->
<g id="node36" class="node">
<title>139_140</title>
<polygon fill="none" stroke="black" points="377.57,-124.5 314.32,-124.5 314.32,-88.5 377.57,-88.5 377.57,-124.5"/>
<text text-anchor="middle" x="345.95" y="-101.45" font-family="Times,serif" font-size="14.00">139_140</text>
</g>
<!-- 129_133&#45;&#45;139_140 -->
<g id="edge60" class="edge">
<title>129_133&#45;&#45;139_140</title>
<path fill="none" stroke="black" d="M345.95,-176.91C345.95,-161.84 345.95,-139.99 345.95,-124.85"/>
<text text-anchor="middle" x="352.7" y="-145.7" font-family="Times,serif" font-size="14.00">53</text>
</g>
</g>
</svg>
